<?xml version="1.0" encoding="UTF-8" standalone="no"?>
<!-- SPDX-License-Identifier: CC-BY-SA-4.0 -->

<!-- Copyright (c) 2018, Heinrich Schuchardt <xypron.glpk@gmx.de> -->

<svg
   xmlns:dc="http://purl.org/dc/elements/1.1/"
   xmlns:cc="http://creativecommons.org/ns#"
   xmlns:rdf="http://www.w3.org/1999/02/22-rdf-syntax-ns#"
   xmlns:svg="http://www.w3.org/2000/svg"
   xmlns="http://www.w3.org/2000/svg"
   xmlns:sodipodi="http://sodipodi.sourceforge.net/DTD/sodipodi-0.dtd"
   xmlns:inkscape="http://www.inkscape.org/namespaces/inkscape"
   width="186"
   height="186"
   viewBox="0 0 186 186"
   id="svg2"
   version="1.1"
   inkscape:version="0.92.5 (2060ec1f9f, 2020-04-08)"
   sodipodi:docname="u-boot_logo_t.svg"
   inkscape:export-filename="u-boot_logo_t.png"
   inkscape:export-xdpi="82.580002"
   inkscape:export-ydpi="82.580002">
  <title
     id="title30">U-Boot Logo</title>
  <metadata
     id="metadata31">
    <rdf:RDF>
      <cc:Work
         rdf:about="">
        <dc:format>image/svg+xml</dc:format>
        <dc:type
           rdf:resource="http://purl.org/dc/dcmitype/StillImage" />
        <dc:title>U-Boot Logo</dc:title>
        <cc:license
           rdf:resource="http://creativecommons.org/licenses/by-sa/4.0/" />
        <dc:creator>
          <cc:Agent>
            <dc:title>Heinrich Schuchardt &lt;xypron.glpk@gmx.de&gt;</dc:title>
          </cc:Agent>
        </dc:creator>
        <dc:date>May 21st, 2018</dc:date>
      </cc:Work>
      <cc:License
         rdf:about="http://creativecommons.org/licenses/by-sa/4.0/">
        <cc:permits
           rdf:resource="http://creativecommons.org/ns#Reproduction" />
        <cc:permits
           rdf:resource="http://creativecommons.org/ns#Distribution" />
        <cc:requires
           rdf:resource="http://creativecommons.org/ns#Notice" />
        <cc:requires
           rdf:resource="http://creativecommons.org/ns#Attribution" />
        <cc:permits
           rdf:resource="http://creativecommons.org/ns#DerivativeWorks" />
        <cc:requires
           rdf:resource="http://creativecommons.org/ns#ShareAlike" />
      </cc:License>
    </rdf:RDF>
  </metadata>
  <defs
     id="defs29" />
  <sodipodi:namedview
     pagecolor="#ffffff"
     bordercolor="#666666"
     borderopacity="1"
     objecttolerance="10"
     gridtolerance="10"
     guidetolerance="10"
     inkscape:pageopacity="0"
     inkscape:pageshadow="2"
     inkscape:window-width="1200"
     inkscape:window-height="1014"
     id="namedview27"
     showgrid="false"
     inkscape:zoom="1.5"
     inkscape:cx="-13.129827"
     inkscape:cy="84.543578"
     inkscape:window-x="1469"
     inkscape:window-y="732"
     inkscape:window-maximized="0"
     inkscape:current-layer="layer1" />
  <g
     inkscape:label="Layer 1"
     inkscape:groupmode="layer"
     id="layer1"
     transform="translate(0,0)">
    <circle
       style="fill:#004466;fill-opacity:1;stroke-width:0;stroke:none"
       id="path835"
       cx="93"
       cy="93"
       r="93" />
    <path
       inkscape:connector-curvature="0"
       style="fill:#ffcc88;fill-opacity:1;stroke:none;stroke-width:0;stroke:none"
       d="m 116,76 a 20,20 0 0 1 -20,-20 20,20 0 0 1 20,-20 v 11 a 9,9 0 0 0 -9,9 9,9 0 0 0 9,9 z"
       id="path4136-6-6-1-6-3-5" />
    <path
       inkscape:connector-curvature="0"
       style="fill:#ffcc88;fill-opacity:1;stroke:none;stroke-width:0"
       d="m 116,66 a 10,10 0 0 1 -10,-10 10,10 0 0 1 10,-10 v 1 a 9,9 0 0 0 -9,9 9,9 0 0 0 9,9 z"
       id="path4136-6-6-1-6-3-5-1-9" />
    <ellipse
       style="fill:#dd9955;fill-opacity:1;stroke:none;stroke-width:0"
       id="path4136-6-6-1-6-3-5-1-2"
       cx="116"
       cy="41.5"
       rx="4"
       ry="5.5" />
    <circle
       style="fill:#dd9955;fill-opacity:1;stroke:none;stroke-width:0"
       id="path4352"
       cx="86"
       cy="66"
       r="10" />
    <circle
       style="fill:#dd9955;fill-opacity:1;stroke:none;stroke-width:0"
       id="path4352-1"
       cx="126"
       cy="66"
       r="10" />
    <rect
       style="fill:#dd9955;fill-opacity:1;stroke:none;stroke-width:0"
       id="rect4399"
       width="39"
       height="20"
       x="86.5"
       y="56" />
    <rect
       style="fill:#dd9955;fill-opacity:1;stroke:none;stroke-width:0"
       id="rect4660"
       width="60"
       height="9.5"
       x="76"
       y="66.5" />
    <circle
       style="fill:#dd9955;fill-opacity:1;stroke:none;stroke-width:0"
       id="path4549-5"
       cx="36"
       cy="81"
       r="15" />
    <circle
       style="fill:#dd9955;fill-opacity:1;stroke:none;stroke-width:0"
       id="path4549-5-5"
       cx="36"
       cy="121"
       r="15" />
    <ellipse
       style="fill:#ffcc88;fill-opacity:1;stroke:#000000;stroke-width:0"
       id="path4136-6-6"
       cx="15"
       cy="91"
       rx="4"
       ry="10" />
    <ellipse
       style="fill:#ffcc88;fill-opacity:1;stroke:#000000;stroke-width:0"
       id="path4136-6-6-1"
       cx="15"
       cy="111"
       rx="4"
       ry="10" />
    <rect
       style="fill:#dd9955;fill-opacity:1;stroke:#000000;stroke-width:0"
       id="rect4213"
       width="65"
       height="4"
       x="11"
       y="99" />
    <ellipse
       style="fill:#ffcc88;fill-opacity:1;stroke:#000000;stroke-width:0"
       id="path4136"
       cx="100.5"
       cy="100.5"
       rx="74.5"
       ry="34.5" />
    <ellipse
       style="fill:#dd9955;fill-opacity:1;stroke:none;stroke-width:0"
       id="path4416"
       cx="70"
       cy="95.5"
       rx="15"
       ry="12.5" />
    <ellipse
       style="fill:#ffcc88;fill-opacity:1;stroke:none;stroke-width:0"
       id="path4416-9"
       cx="70"
       cy="95.5"
       rx="14"
       ry="11.5" />
    <ellipse
       style="fill:#dd9955;fill-opacity:1;stroke:none;stroke-width:0"
       id="path4416-0"
       cx="70"
       cy="95.5"
       rx="11"
       ry="8.5" />
    <ellipse
       style="fill:#dd9955;fill-opacity:1;stroke:none;stroke-width:0"
       id="path4416-94"
       cx="110"
       cy="95.5"
       rx="15"
       ry="12.5" />
    <ellipse
       style="fill:#ffcc88;fill-opacity:1;stroke:none;stroke-width:0"
       id="path4416-9-1"
       cx="110"
       cy="95.5"
       rx="14"
       ry="11.5" />
    <ellipse
       style="fill:#dd9955;fill-opacity:1;stroke:none;stroke-width:0"
       id="path4416-0-1"
       cx="110"
       cy="95.5"
       rx="11"
       ry="8.5" />
    <ellipse
       style="fill:#dd9955;fill-opacity:1;stroke:none;stroke-width:0"
       id="path4416-94-2"
       cx="150"
       cy="95.5"
       rx="15"
       ry="12.5" />
    <ellipse
       style="fill:#ffcc88;fill-opacity:1;stroke:none;stroke-width:0"
       id="path4416-9-1-2"
       cx="150"
       cy="95.5"
       rx="14"
       ry="11.5" />
    <ellipse
       style="fill:#dd9955;fill-opacity:1;stroke:none;stroke-width:0"
       id="path4416-0-1-9"
       cx="150"
       cy="95.5"
       rx="11"
       ry="8.5" />
    <g
       aria-label="U-Boot"
       style="font-style:normal;font-variant:normal;font-weight:bold;font-stretch:normal;font-size:37.16266632px;line-height:125%;font-family:Calibri;-inkscape-font-specification:'Calibri, Bold';font-variant-ligatures:normal;font-variant-caps:normal;font-variant-numeric:normal;font-feature-settings:normal;text-align:start;letter-spacing:0px;word-spacing:0px;writing-mode:lr-tb;text-anchor:start;fill:#ffcc88;fill-opacity:1;stroke:none;stroke-width:1.54841852px;stroke-linecap:butt;stroke-linejoin:miter;stroke-opacity:1"
       id="text33">
      <title
         id="title67">calibri bold 18pt</title>
      <path
         d="m 58.509655,156.7215 q 0,2.15935 -0.635104,3.86506 -0.635104,1.70571 -1.869021,2.88519 -1.233916,1.17948 -3.0485,1.79643 -1.814583,0.61696 -4.173541,0.61696 -2.213792,0 -3.973938,-0.54437 -1.760146,-0.56252 -2.975916,-1.68756 -1.215771,-1.12505 -1.869021,-2.79446 -0.635104,-1.68757 -0.635104,-3.93765 v -14.28077 q 0,-0.18146 0.108875,-0.32662 0.108875,-0.14517 0.381062,-0.2359 0.290333,-0.0907 0.743979,-0.14517 0.453646,-0.0544 1.161334,-0.0544 0.689541,0 1.143187,0.0544 0.453646,0.0544 0.725833,0.14517 0.272188,0.0907 0.381063,0.2359 0.127021,0.14516 0.127021,0.32662 v 13.86342 q 0,1.39723 0.344771,2.43154 0.34477,1.01617 0.979875,1.68756 0.65325,0.6714 1.542395,1.01617 0.907292,0.32662 2.014188,0.32662 1.125042,0 2.014187,-0.34477 0.889146,-0.34477 1.506105,-0.99802 0.616958,-0.67139 0.943583,-1.63312 0.344771,-0.97988 0.344771,-2.2138 v -14.1356 q 0,-0.18146 0.108875,-0.32662 0.108875,-0.14517 0.381062,-0.2359 0.272188,-0.0907 0.725834,-0.14517 0.471791,-0.0544 1.161333,-0.0544 0.689541,0 1.125041,0.0544 0.453646,0.0544 0.725834,0.14517 0.272187,0.0907 0.381062,0.2359 0.108875,0.14516 0.108875,0.32662 z"
         style="font-style:normal;font-variant:normal;font-weight:bold;font-stretch:normal;font-size:37.16266632px;font-family:Calibri;-inkscape-font-specification:'Calibri, Bold';font-variant-ligatures:normal;font-variant-caps:normal;font-variant-numeric:normal;font-feature-settings:normal;text-align:start;writing-mode:lr-tb;text-anchor:start;fill:#ffcc88;fill-opacity:1;stroke-width:1.54841852px"
         id="path54" />
      <path
         d="m 71.356905,156.34043 q 0,1.05246 -0.199604,1.46982 -0.199604,0.41735 -0.635104,0.41735 H 62.97353 q -0.453646,0 -0.65325,-0.41735 -0.199604,-0.4355 -0.199604,-1.46982 0,-1.01616 0.199604,-1.43352 0.199604,-0.41735 0.65325,-0.41735 h 7.548667 q 0.21775,0 0.362916,0.0907 0.163313,0.0907 0.272188,0.30848 0.108875,0.21775 0.145166,0.58066 0.05444,0.36292 0.05444,0.871 z"
         style="font-style:normal;font-variant:normal;font-weight:bold;font-stretch:normal;font-size:37.16266632px;font-family:Calibri;-inkscape-font-specification:'Calibri, Bold';font-variant-ligatures:normal;font-variant-caps:normal;font-variant-numeric:normal;font-feature-settings:normal;text-align:start;writing-mode:lr-tb;text-anchor:start;fill:#ffcc88;fill-opacity:1;stroke-width:1.54841852px"
         id="path56" />
      <path
         d="m 91.988717,158.42721 q 0,1.25206 -0.34477,2.26822 -0.344771,1.01617 -0.96173,1.79644 -0.598812,0.78027 -1.451666,1.34279 -0.834709,0.56252 -1.850875,0.92544 -1.016167,0.36292 -2.1775,0.54438 -1.143188,0.16331 -2.558563,0.16331 h -6.242166 q -0.598813,0 -1.016167,-0.34477 -0.399208,-0.36292 -0.399208,-1.16134 v -20.4685 q 0,-0.79841 0.399208,-1.14318 0.417354,-0.36292 1.016167,-0.36292 h 5.897396 q 2.159354,0 3.647312,0.36292 1.506104,0.36291 2.522271,1.10689 1.034312,0.72584 1.578687,1.85088 0.544375,1.12504 0.544375,2.64929 0,0.85285 -0.21775,1.61498 -0.21775,0.74398 -0.635104,1.36094 -0.417354,0.61695 -1.034312,1.08875 -0.598813,0.47179 -1.379084,0.76212 0.998021,0.18146 1.832729,0.63511 0.852855,0.45364 1.469813,1.17947 0.635104,0.70769 0.998021,1.66942 0.362916,0.96173 0.362916,2.15936 z m -6.169583,-9.88948 q 0,-0.70769 -0.21775,-1.27021 -0.21775,-0.56252 -0.65325,-0.92544 -0.4355,-0.38106 -1.106896,-0.58067 -0.65325,-0.1996 -1.760145,-0.1996 h -2.413396 v 6.097 h 2.667437 q 1.034313,0 1.651271,-0.2359 0.616958,-0.25404 1.016167,-0.67139 0.417354,-0.4355 0.616958,-0.99802 0.199604,-0.58067 0.199604,-1.21577 z m 1.215771,10.05279 q 0,-0.81656 -0.272187,-1.45167 -0.272188,-0.65325 -0.798417,-1.08875 -0.526229,-0.4355 -1.342792,-0.67139 -0.816562,-0.2359 -2.123062,-0.2359 h -2.83075 v 6.67767 h 3.447708 q 0.998021,0 1.669417,-0.19961 0.689541,-0.21775 1.179479,-0.61696 0.508083,-0.41735 0.780271,-1.01616 0.290333,-0.61696 0.290333,-1.39723 z"
         style="font-style:normal;font-variant:normal;font-weight:bold;font-stretch:normal;font-size:37.16266632px;font-family:Calibri;-inkscape-font-specification:'Calibri, Bold';font-variant-ligatures:normal;font-variant-caps:normal;font-variant-numeric:normal;font-feature-settings:normal;text-align:start;writing-mode:lr-tb;text-anchor:start;fill:#ffcc88;fill-opacity:1;stroke-width:1.54841852px"
         id="path58" />
      <path
         d="m 111.91284,156.59448 q 0,2.06862 -0.54437,3.77433 -0.54438,1.70571 -1.65127,2.93962 -1.1069,1.23392 -2.77632,1.90532 -1.66941,0.67139 -3.90135,0.67139 -2.15935,0 -3.756187,-0.59881 -1.596833,-0.59881 -2.649292,-1.742 -1.052458,-1.14319 -1.560541,-2.8126 -0.508084,-1.66942 -0.508084,-3.81063 0,-2.06862 0.544375,-3.77433 0.562521,-1.72386 1.669417,-2.93963 1.106896,-1.23391 2.758167,-1.90531 1.669415,-0.6714 3.901355,-0.6714 2.1775,0 3.77433,0.59882 1.59684,0.58066 2.63115,1.72385 1.05246,1.14319 1.56054,2.81261 0.50808,1.66941 0.50808,3.82877 z m -4.69977,0.18145 q 0,-1.19762 -0.1996,-2.19564 -0.18146,-1.01617 -0.63511,-1.76015 -0.45364,-0.74398 -1.21577,-1.16133 -0.74398,-0.41735 -1.88716,-0.41735 -1.01617,0 -1.7783,0.38106 -0.76212,0.36291 -1.25206,1.08875 -0.489935,0.70769 -0.743977,1.72385 -0.235896,0.99802 -0.235896,2.28638 0,1.19762 0.199604,2.21379 0.199604,0.99802 0.635109,1.742 0.45364,0.74398 1.21577,1.16133 0.76212,0.39921 1.88716,0.39921 1.03432,0 1.79644,-0.36292 0.76213,-0.38106 1.25206,-1.08875 0.48994,-0.70768 0.72584,-1.7057 0.23589,-1.01617 0.23589,-2.30453 z"
         style="font-style:normal;font-variant:normal;font-weight:bold;font-stretch:normal;font-size:37.16266632px;font-family:Calibri;-inkscape-font-specification:'Calibri, Bold';font-variant-ligatures:normal;font-variant-caps:normal;font-variant-numeric:normal;font-feature-settings:normal;text-align:start;writing-mode:lr-tb;text-anchor:start;fill:#ffcc88;fill-opacity:1;stroke-width:1.54841852px"
         id="path60" />
      <path
         d="m 131.8914,156.59448 q 0,2.06862 -0.54437,3.77433 -0.54438,1.70571 -1.65127,2.93962 -1.1069,1.23392 -2.77631,1.90532 -1.66942,0.67139 -3.90136,0.67139 -2.15935,0 -3.75619,-0.59881 -1.59683,-0.59881 -2.64929,-1.742 -1.05246,-1.14319 -1.56054,-2.8126 -0.50808,-1.66942 -0.50808,-3.81063 0,-2.06862 0.54437,-3.77433 0.56252,-1.72386 1.66942,-2.93963 1.1069,-1.23391 2.75817,-1.90531 1.66941,-0.6714 3.90135,-0.6714 2.1775,0 3.77433,0.59882 1.59684,0.58066 2.63115,1.72385 1.05246,1.14319 1.56054,2.81261 0.50808,1.66941 0.50808,3.82877 z m -4.69977,0.18145 q 0,-1.19762 -0.1996,-2.19564 -0.18146,-1.01617 -0.6351,-1.76015 -0.45365,-0.74398 -1.21578,-1.16133 -0.74397,-0.41735 -1.88716,-0.41735 -1.01617,0 -1.77829,0.38106 -0.76213,0.36291 -1.25207,1.08875 -0.48993,0.70769 -0.74398,1.72385 -0.23589,0.99802 -0.23589,2.28638 0,1.19762 0.1996,2.21379 0.19961,0.99802 0.63511,1.742 0.45364,0.74398 1.21577,1.16133 0.76212,0.39921 1.88716,0.39921 1.03432,0 1.79644,-0.36292 0.76213,-0.38106 1.25206,-1.08875 0.48994,-0.70768 0.72584,-1.7057 0.23589,-1.01617 0.23589,-2.30453 z"
         style="font-style:normal;font-variant:normal;font-weight:bold;font-stretch:normal;font-size:37.16266632px;font-family:Calibri;-inkscape-font-specification:'Calibri, Bold';font-variant-ligatures:normal;font-variant-caps:normal;font-variant-numeric:normal;font-feature-settings:normal;text-align:start;writing-mode:lr-tb;text-anchor:start;fill:#ffcc88;fill-opacity:1;stroke-width:1.54841852px"
         id="path62" />
      <path
         d="m 145.08342,163.254 q 0,0.79841 -0.10887,1.23391 -0.0907,0.41736 -0.25404,0.59882 -0.16332,0.16331 -0.48994,0.30848 -0.30848,0.12702 -0.74398,0.21775 -0.41735,0.10887 -0.92544,0.16331 -0.48993,0.0544 -0.99802,0.0544 -1.36094,0 -2.35896,-0.34478 -0.99802,-0.34477 -1.65127,-1.05245 -0.65325,-0.72584 -0.96173,-1.81459 -0.30848,-1.08875 -0.30848,-2.57671 v -8.29264 h -1.9416 q -0.34477,0 -0.52623,-0.41736 -0.18146,-0.4355 -0.18146,-1.43352 0,-0.52623 0.0363,-0.88914 0.0544,-0.36292 0.14516,-0.56252 0.0907,-0.21775 0.21775,-0.30848 0.14517,-0.0907 0.32663,-0.0907 h 1.92345 v -3.61102 q 0,-0.18146 0.0907,-0.32663 0.10888,-0.14516 0.36292,-0.23589 0.27219,-0.10888 0.70769,-0.14517 0.45364,-0.0544 1.10689,-0.0544 0.6714,0 1.1069,0.0544 0.45365,0.0363 0.70769,0.14517 0.25404,0.0907 0.36291,0.23589 0.10888,0.14517 0.10888,0.32663 v 3.61102 h 3.52029 q 0.18146,0 0.30848,0.0907 0.14517,0.0907 0.2359,0.30848 0.0907,0.1996 0.12702,0.56252 0.0544,0.36291 0.0544,0.88914 0,0.99802 -0.18145,1.43352 -0.18146,0.41736 -0.52623,0.41736 h -3.53844 v 7.6031 q 0,1.32465 0.41735,1.99604 0.41736,0.65325 1.48796,0.65325 0.36292,0 0.65325,-0.0544 0.29033,-0.0726 0.50808,-0.14517 0.2359,-0.0907 0.38107,-0.14517 0.16331,-0.0726 0.29033,-0.0726 0.10888,0 0.1996,0.0726 0.10888,0.0544 0.16332,0.25405 0.0544,0.18145 0.0907,0.50808 0.0544,0.32662 0.0544,0.83471 z"
         style="font-style:normal;font-variant:normal;font-weight:bold;font-stretch:normal;font-size:37.16266632px;font-family:Calibri;-inkscape-font-specification:'Calibri, Bold';font-variant-ligatures:normal;font-variant-caps:normal;font-variant-numeric:normal;font-feature-settings:normal;text-align:start;writing-mode:lr-tb;text-anchor:start;fill:#ffcc88;fill-opacity:1;stroke-width:1.54841852px"
         id="path64" />
    </g>
  </g>
</svg>
